# xmcd CD database file
#
# Track frame offsets:
#	150
#	11795
#	22362
#	32907
#	43625
#	55530
#	65685
#	76642
#	88345
#	101197
#	113987
#	124772
#	137472
#	149645
#	160987
#	185815
#	195709
#	206505
#
# Disc length: 2894 seconds
#
# Revision: 3
# Processed by: cddbd v1.5.2PL0 Copyright (c) Steve Scherf et al.
# Submitted via: CDex 1.51
#
DISCID=0d0b4c12
DTITLE=Arthur "Big Boy" Crudup - Mean Ol' Frisco
DYEAR=1900
DGENRE=Blues
TTITLE0=Mean Ole Frisco
TTITLE1=Look On Yonder Wall
TTITLE2=That's Alright
TTITLE3=Ethel Mae
TTITLE4=Too Much Competition
TTITLE5=Standing At My Window
TTITLE6=Rock Me Mama
TTITLE7=Greyhound Bus
TTITLE8=Coal Black Mare
TTITLE9=Katie Mae
TTITLE10=Dig Myself A Hole
TTITLE11=So Glad You're Mine
TTITLE12=Death Valley Blues
TTITLE13=If I Get Lucky
TTITLE14=Angel Child
TTITLE15=The Moon Is Rising
TTITLE16=My Mama Don't Allow Me
TTITLE17=I'm In The Mood
EXTD=
EXTT0=
EXTT1=
EXTT2=
EXTT3=
EXTT4=
EXTT5=
EXTT6=
EXTT7=
EXTT8=
EXTT9=
EXTT10=
EXTT11=
EXTT12=
EXTT13=
EXTT14=
EXTT15=
EXTT16=
EXTT17=
PLAYORDER=
